<?xml version="1.0" encoding="UTF-8"?>
<svg xmlns="http://www.w3.org/2000/svg" xmlns:xlink="http://www.w3.org/1999/xlink" width="40px" height="40px" viewBox="0 0 40 40" version="1.1">
<g id="surface1">
<path style="fill:none;stroke-width:2;stroke-linecap:round;stroke-linejoin:round;stroke:rgb(0%,0%,0%);stroke-opacity:1;stroke-miterlimit:4;" d="M 19.000781 10.000781 L 19.000781 6.199219 C 19.000781 5.078906 19.000781 4.51875 18.782812 4.092187 C 18.590625 3.714844 18.283594 3.410156 17.908594 3.217969 C 17.479687 3 16.919531 3 15.799219 3 L 8.200781 3 C 7.080469 3 6.520312 3 6.091406 3.217969 C 5.716406 3.410156 5.409375 3.714844 5.217187 4.092187 C 4.999219 4.51875 4.999219 5.078906 4.999219 6.199219 L 4.999219 10.000781 M 4.999219 9 L 1.999219 9 L 1.999219 7.999219 M 19.000781 9 L 22.000781 9 L 22.000781 7.999219 M 6 13.5 L 6.009375 13.5 M 18 13.5 L 18.009375 13.5 M 6.799219 10.000781 L 17.200781 10.000781 C 18.88125 10.000781 19.720312 10.000781 20.3625 10.326562 C 20.927344 10.614844 21.384375 11.074219 21.672656 11.639062 C 22.000781 12.278906 22.000781 13.120312 22.000781 14.800781 L 22.000781 18 C 22.000781 18.932812 22.000781 19.396875 21.848437 19.764844 C 21.644531 20.254687 21.255469 20.64375 20.765625 20.847656 C 20.397656 21 19.93125 21 19.000781 21 L 18.400781 21 C 18.028125 21 17.842969 21 17.685937 20.976562 C 16.830469 20.840625 16.160156 20.167969 16.024219 19.3125 C 16.000781 19.157812 16.000781 18.972656 16.000781 18.6 C 16.000781 18.50625 16.000781 18.461719 15.99375 18.421875 C 15.960937 18.208594 15.792187 18.039844 15.578906 18.007031 C 15.539062 18 15.492187 18 15.400781 18 L 8.599219 18 C 8.507812 18 8.460937 18 8.421094 18.007031 C 8.207812 18.039844 8.039062 18.208594 8.00625 18.421875 C 7.999219 18.461719 7.999219 18.50625 7.999219 18.6 C 7.999219 18.972656 7.999219 19.157812 7.975781 19.3125 C 7.839844 20.167969 7.169531 20.840625 6.311719 20.976562 C 6.157031 21 5.971875 21 5.599219 21 L 4.999219 21 C 4.06875 21 3.602344 21 3.234375 20.847656 C 2.744531 20.64375 2.355469 20.254687 2.151562 19.764844 C 1.999219 19.396875 1.999219 18.932812 1.999219 18 L 1.999219 14.800781 C 1.999219 13.120312 1.999219 12.278906 2.327344 11.639062 C 2.615625 11.074219 3.072656 10.614844 3.6375 10.326562 C 4.279687 10.000781 5.11875 10.000781 6.799219 10.000781 Z M 6.499219 13.5 C 6.499219 13.776562 6.276562 13.999219 6 13.999219 C 5.723437 13.999219 5.500781 13.776562 5.500781 13.5 C 5.500781 13.223437 5.723437 13.000781 6 13.000781 C 6.276562 13.000781 6.499219 13.223437 6.499219 13.5 Z M 18.499219 13.5 C 18.499219 13.776562 18.276562 13.999219 18 13.999219 C 17.723437 13.999219 17.500781 13.776562 17.500781 13.5 C 17.500781 13.223437 17.723437 13.000781 18 13.000781 C 18.276562 13.000781 18.499219 13.223437 18.499219 13.5 Z M 18.499219 13.5 " transform="matrix(1.666667,0,0,1.666667,0,0)"/>
</g>
</svg>
